<svg viewBox="0 0 32 32" xmlns="http://www.w3.org/2000/svg">
  <!--
    Kinyoubi-House K mark, text outlined.

    The K is rendered as a vector path traced from Iowan Old Style Roman
    so the file no longer depends on a system font being present at render
    time. Auto-flips between ink (light backgrounds) and cream (dark
    backgrounds) via prefers-color-scheme. The gold superscript bullet is
    a circle; unchanged from the live favicon.
  -->
  <style>
    .ink { fill: #111111; }
    @media (prefers-color-scheme: dark) {
      .ink { fill: #ECEAE2; }
    }
  </style>
  <path class="ink" d="M16.24 8.28Q16.99 8.32 17.73 8.35Q18.47 8.37 19.17 8.37Q19.68 8.37 20.33 8.35Q20.99 8.32 21.77 8.28L21.77 9.06L21.67 9.06Q20.33 9.06 19.1 10.22L18.98 10.34L13.17 15.91L18.53 21.29Q18.74 21.5 19.13 21.88Q21.39 24.2 22.44 24.2Q22.57 24.2 22.64 24.2Q22.71 24.19 22.75 24.18L22.76 25Q22.57 24.99 22.25 24.98Q21.04 24.91 20.59 24.91Q20.14 24.91 19.58 24.93Q19.01 24.95 18.36 25Q18.38 24.96 18.38 24.95Q18.39 24.93 18.39 24.88Q18.39 24.27 14.65 20.56Q12.39 18.3 10.97 16.84L15.48 11.97Q15.79 11.63 16.31 11.08Q17.5 9.8 17.5 9.57Q17.5 9.31 17.27 9.19Q17.04 9.06 16.54 9.06L16.24 9.06ZM6.91 8.28Q7.75 8.32 8.51 8.35Q9.27 8.37 9.89 8.37Q10.62 8.37 11.37 8.35Q12.12 8.32 12.89 8.28L12.89 9.06L12.74 9.06Q11.68 9.06 11.33 9.59Q10.97 10.12 10.97 12.31L10.97 20.88Q10.97 23.17 11.31 23.69Q11.65 24.2 12.67 24.2Q12.73 24.2 12.86 24.19Q12.98 24.18 13.05 24.18L13.05 25Q12.18 24.95 11.37 24.93Q10.57 24.91 9.89 24.91Q9.35 24.91 8.57 24.93Q7.78 24.95 6.84 25L6.84 24.19Q6.91 24.19 7 24.2Q7.08 24.2 7.22 24.2Q8.14 24.2 8.48 23.55Q8.81 22.9 8.81 20.65Q8.81 20.35 8.8 19.5Q8.79 18.66 8.79 18.13L8.79 15.02Q8.79 14.43 8.8 13.52Q8.81 12.61 8.81 12.29Q8.81 10.26 8.48 9.66Q8.14 9.06 7.22 9.06Q7.18 9.06 7.08 9.07Q6.97 9.09 6.91 9.09Z" />
  <circle cx="22" cy="9" r="2.4" fill="#B58A3A" />
</svg>
